<svg height="461pt" viewBox="-38 0 461 461.31901" width="461pt" xmlns="http://www.w3.org/2000/svg"><path d="m153.78125 361.128906h76.824219l123.589843 48.0625c8.859376 3.445313 14.695313 11.976563 14.695313 21.480469v7.28125c0 8.484375-6.882813 15.363281-15.367187 15.363281h-322.660157c-8.488281 0-15.363281-6.878906-15.363281-15.363281v-7.28125c0-9.503906 5.832031-18.035156 14.691406-21.480469zm0 0" fill="#394d5c"/><path d="m92.320312 414.90625h199.746094v15.363281h-199.746094zm0 0" fill="#aabece"/><path d="m376.574219 192.117188c0 101.828124-82.550781 184.378906-184.378907 184.378906-101.832031 0-184.378906-82.550782-184.378906-184.378906 0-101.832032 82.546875-184.378907 184.378906-184.378907 101.828126 0 184.378907 82.546875 184.378907 184.378907zm0 0" fill="#aabece"/><path d="m322.796875 192.117188c0 72.128906-58.472656 130.601562-130.601563 130.601562-72.128906 0-130.601562-58.472656-130.601562-130.601562 0-72.128907 58.472656-130.601563 130.601562-130.601563 72.128907 0 130.601563 58.472656 130.601563 130.601563zm0 0" fill="#394d5c"/><path d="m292.066406 192.117188c0 55.15625-44.714844 99.871093-99.871094 99.871093-55.160156 0-99.875-44.714843-99.875-99.871093 0-55.160157 44.714844-99.871094 99.875-99.871094 55.15625 0 99.871094 44.710937 99.871094 99.871094zm0 0" fill="#cfdfe8"/><path d="m192.195312 268.941406c-4.246093 0-7.683593-3.441406-7.683593-7.683594 0-4.242187 3.4375-7.683593 7.683593-7.683593 12.152344.019531 24.039063-3.582031 34.136719-10.34375 3.542969-2.339844 8.308594-1.359375 10.644531 2.183593 2.3125 3.507813 1.378907 8.222657-2.097656 10.582032-12.625 8.460937-27.488281 12.96875-42.683594 12.945312zm0 0" fill="#aabece"/><path d="m249.683594 238.210938c-4.242188-.003907-7.679688-3.445313-7.675782-7.6875 0-1.519532.453126-3.007813 1.300782-4.273438 18.851562-28.226562 11.25-66.394531-16.980469-85.242188-28.226563-18.851562-66.394531-11.25-85.242187 16.976563-6.75 10.105469-10.351563 21.980469-10.351563 34.132813 0 4.242187-3.441406 7.679687-7.683594 7.679687-4.242187 0-7.679687-3.4375-7.679687-7.679687.007812-42.429688 34.410156-76.816407 76.839844-76.808594 42.425781.007812 76.816406 34.410156 76.808593 76.839844-.003906 15.183593-4.507812 30.027343-12.945312 42.65625-1.425781 2.132812-3.824219 3.410156-6.390625 3.40625zm0 0" fill="#aabece"/><path d="m384.253906 192.117188c.03125-106.074219-85.933594-192.085938-192.003906-192.117188-106.074219-.03125-192.085938 85.933594-192.117188 192.003906-.023437 76.261719 45.078126 145.3125 114.917969 175.945313l-87.652343 34.082031c-11.839844 4.554688-19.632813 15.953125-19.582032 28.636719v7.285156c.011719 12.722656 10.324219 23.03125 23.046875 23.046875h322.660157c12.722656-.015625 23.03125-10.324219 23.046874-23.046875v-7.285156c.050782-12.6875-7.75-24.085938-19.59375-28.636719l-87.644531-34.082031c69.761719-30.664063 114.835938-99.628907 114.921875-175.832031zm-32.847656 224.230468c5.886719 2.320313 9.765625 7.992188 9.800781 14.320313v7.285156c-.003906 4.242187-3.441406 7.679687-7.683593 7.683594h-322.660157c-4.242187-.003907-7.679687-3.441407-7.683593-7.683594v-7.285156c.035156-6.328125 3.910156-11.996094 9.792968-14.320313l103.785156-40.363281c36.148438 10.917969 74.71875 10.921875 110.867188.003906zm-159.210938-47.535156c-97.585937 0-176.695312-79.109375-176.695312-176.695312 0-97.585938 79.109375-176.695313 176.695312-176.695313 97.585938 0 176.695313 79.109375 176.695313 176.695313-.109375 97.539062-79.15625 176.585937-176.695313 176.695312zm0 0"/><path d="m92.320312 414.90625h199.746094v15.363281h-199.746094zm0 0"/><path d="m192.195312 53.832031c-76.375 0-138.285156 61.910157-138.285156 138.28125 0 76.371094 61.914063 138.285157 138.285156 138.285157 76.371094 0 138.28125-61.914063 138.28125-138.285157-.085937-76.332031-61.949218-138.195312-138.28125-138.28125zm0 261.203125c-67.886718 0-122.921874-55.035156-122.921874-122.921875 0-67.882812 55.035156-122.917969 122.921874-122.917969 67.882813 0 122.917969 55.035157 122.917969 122.921876-.078125 67.851562-55.066406 122.839843-122.917969 122.917968zm0 0"/><path d="m192.195312 84.5625c-59.402343 0-107.554687 48.152344-107.554687 107.550781 0 59.402344 48.152344 107.554688 107.554687 107.554688 59.398438 0 107.550782-48.152344 107.550782-107.554688-.066406-59.371093-48.179688-107.484375-107.550782-107.550781zm0 199.742188c-50.917968 0-92.191406-41.273438-92.191406-92.191407 0-50.914062 41.273438-92.1875 92.191406-92.1875 50.914063 0 92.1875 41.273438 92.1875 92.1875-.054687 50.894531-41.296874 92.136719-92.1875 92.191407zm0 0"/><path d="m226.332031 243.230469c-10.097656 6.761719-21.984375 10.363281-34.136719 10.34375-4.246093 0-7.683593 3.441406-7.683593 7.683593 0 4.242188 3.4375 7.683594 7.683593 7.683594 15.195313.023438 30.058594-4.480468 42.683594-12.941406 3.511719-2.382812 4.421875-7.164062 2.039063-10.671875-2.359375-3.476563-7.074219-4.414063-10.585938-2.097656zm0 0"/><path d="m192.195312 115.292969c-42.410156.046875-76.777343 34.414062-76.824218 76.820312 0 4.246094 3.4375 7.683594 7.683594 7.683594 4.242187 0 7.679687-3.4375 7.679687-7.683594.007813-33.941406 27.527344-61.453125 61.46875-61.449219 33.945313.003907 61.457031 27.527344 61.453125 61.46875-.003906 12.144532-3.601562 24.019532-10.347656 34.117188-2.359375 3.527344-1.417969 8.300781 2.109375 10.660156 3.527343 2.363282 8.296875 1.421875 10.660156-2.105468 23.570313-35.289063 14.070313-83.003907-21.21875-106.574219-12.632813-8.433594-27.476563-12.9375-42.664063-12.9375zm0 0"/></svg>