<svg height="512pt" viewBox="0 0 512 512" width="512pt" xmlns="http://www.w3.org/2000/svg"><path d="m437.085938 64h-32v49.910156l32 23.667969zm0 0" fill="#b3b6c3"/><path d="m106 453.957031h362v47.042969h-362zm0 0" fill="#b3b6c3"/><path d="m76 213v240.957031h360v-240.957031l-180-140zm0 0" fill="#edf2fa"/><path d="m436 357.449219c-2.628906 0-5.210938-1.070313-7.070312-2.929688-1.859376-1.859375-2.929688-4.441406-2.929688-7.070312 0-2.628907 1.070312-5.210938 2.929688-7.070313 1.859374-1.859375 4.441406-2.929687 7.070312-2.929687s5.210938 1.070312 7.070312 2.929687c1.859376 1.859375 2.929688 4.441406 2.929688 7.070313 0 2.628906-1.070312 5.210937-2.929688 7.070312-1.859374 1.859375-4.441406 2.929688-7.070312 2.929688zm0 0"/><path d="m48.449219 235.933594 210.550781-162.933594 210.492188 162.890625 31.777343-31.792969-226.269531-175.097656-244.34375 189.085938zm0 0" fill="#ff5d5d"/><path d="m436 317.449219c5.523438 0 10-4.476563 10-10v-74.773438l14.371094 11.125c3.984375 3.082031 9.636718 2.71875 13.195312-.839843l35.503906-35.523438c2.03125-2.03125 3.089844-4.839844 2.910157-7.703125-.183594-2.867187-1.589844-5.515625-3.859375-7.273437l-61.035156-47.234376v-91.226562c0-5.523438-4.476563-10-10-10h-56c-5.523438 0-10 4.476562-10 10v32.414062l-108.964844-84.324218c-3.605469-2.785156-8.636719-2.785156-12.242188 0l-246 190.367187c-2.269531 1.757813-3.675781 4.402344-3.8593748 7.269531-.1835932 2.863282.8710938 5.667969 2.8984378 7.699219l35.449219 35.566407c1.9375 1.949218 4.503906 2.941406 7.085937 2.941406 2.144531 0 4.304687-.6875 6.117187-2.089844l14.429688-11.167969v211.28125h-22c-5.523438 0-10 4.476563-10 10v48.042969c0 5.523438 4.476562 10 10 10h424c5.523438 0 10-4.476562 10-10v-48.042969c0-5.523437-4.476562-10-10-10h-22v-56.507812c0-5.523438-4.476562-10-10-10s-10 4.476562-10 10v56.507812h-340v-226.757812l170-131.554688 170 131.554688v90.25c0 5.523437 4.476562 10 10 10zm0 146.507812h22v28.042969h-404v-28.042969zm-44.914062-399.957031h36v65.75l-36-27.859375zm-141.207032 1.089844-203.574218 157.539062-21.21875-21.292968 230.914062-178.691407 230.902344 178.683594-21.253906 21.261719-203.527344-157.5c-3.605469-2.785156-8.636719-2.785156-12.242188 0zm0 0"/><g fill="#72d8ff"><path d="m147.085938 273.648438c-4.886719 4.886718-6.714844 11.671874-5.488282 17.984374 4.304688-.511718 8.472656-2.402343 11.773438-5.703124 54.398437-54.398438 141.582031-56.492188 198.523437-6.308594 5.878907 3.476562 11.5625 7.410156 17.003907 11.789062 1.277343.25 2.574218.378906 3.875.378906 5.117187 0 10.234374-1.953124 14.140624-5.855468 7.8125-7.8125 7.808594-20.476563 0-28.285156-3.691406-3.691407-7.503906-7.179688-11.417968-10.492188-71.378906-44.21875-166.527344-35.390625-228.410156 26.492188zm0 0"/><path d="m204.65625 336.21875c-4.238281 4.242188-6.15625 9.914062-5.792969 15.464844 5.207031.070312 10.4375-1.871094 14.414063-5.847656 23.554687-23.558594 61.890625-23.558594 85.445312 0 3.90625 3.90625 9.023438 5.859374 14.144532 5.859374 5.117187 0 10.238281-1.953124 14.140624-5.859374 6.054688-6.050782 7.394532-15.007813 4.066407-22.371094-38.972657-25.796875-92.117188-21.546875-126.417969 12.753906zm0 0"/><path d="m276.125 390.449219c0 11.046875-8.953125 20-20 20-11.042969 0-20-8.953125-20-20 0-11.042969 8.957031-20 20-20 11.046875 0 20 8.957031 20 20zm0 0"/></g><path d="m372.773438 301.789062c-8.015626 0-15.550782-3.121093-21.214844-8.785156-52.691406-52.691406-138.425782-52.691406-191.117188 0-11.695312 11.695313-30.726562 11.695313-42.425781 0-11.695313-11.699218-11.695313-30.730468 0-42.429687 76.085937-76.082031 199.882813-76.082031 275.96875 0 11.695313 11.699219 11.695313 30.730469 0 42.429687-5.664063 5.664063-13.199219 8.785156-21.210937 8.785156zm-116.773438-68.296874c39.726562 0 79.457031 15.125 109.699219 45.367187 1.890625 1.890625 4.398437 2.929687 7.070312 2.929687s5.183594-1.039062 7.070313-2.929687c3.902344-3.898437 3.898437-10.242187 0-14.140625-68.285156-68.289062-179.394532-68.289062-247.683594 0-3.898438 3.898438-3.898438 10.242188 0 14.140625s10.242188 3.902344 14.140625 0c30.246094-30.242187 69.976563-45.367187 109.703125-45.367187zm0 0"/><path d="m312.867188 361.695312c-8.015626 0-15.546876-3.121093-21.214844-8.789062-9.503906-9.503906-22.167969-14.738281-35.652344-14.738281-13.488281 0-26.148438 5.234375-35.652344 14.738281-11.695312 11.699219-30.730468 11.699219-42.429687 0-11.695313-11.695312-11.695313-30.726562 0-42.425781 43.054687-43.054688 113.105469-43.050781 156.160156 0 11.695313 11.699219 11.695313 30.730469 0 42.425781-5.664063 5.667969-13.199219 8.789062-21.210937 8.789062zm-56.867188-43.527343c18.828125 0 36.511719 7.3125 49.792969 20.597656 1.890625 1.886719 4.402343 2.929687 7.074219 2.929687 2.667968 0 5.179687-1.042968 7.070312-2.929687 3.898438-3.898437 3.898438-10.242187 0-14.144531-35.257812-35.253906-92.621094-35.253906-127.875 0-3.898438 3.898437-3.898438 10.246094 0 14.144531 1.886719 1.886719 4.398438 2.929687 7.070312 2.929687 2.671876 0 5.183594-1.042968 7.070313-2.929687 13.285156-13.28125 30.96875-20.597656 49.796875-20.597656zm0 0"/><path d="m256.125 420.449219c-16.539062 0-30-13.457031-30-30 0-16.539063 13.460938-30 30-30 16.542969 0 30 13.460937 30 30 0 16.542969-13.457031 30-30 30zm0-40c-5.511719 0-10 4.488281-10 10 0 5.515625 4.488281 10 10 10 5.515625 0 10-4.484375 10-10 0-5.511719-4.484375-10-10-10zm0 0"/></svg>